<!--?xml version="1.0" standalone="no"?-->
              <svg id="sw-js-blob-svg" viewBox="0 0 100 100" xmlns="http://www.w3.org/2000/svg" version="1.1">
                    <defs> 
                        <linearGradient id="sw-gradient" x1="0" x2="1" y1="1" y2="0">
                            <stop id="stop1" stop-color="rgba(223, 231, 253, 1)" offset="0%"></stop>
                            <stop id="stop2" stop-color="rgba(255, 241, 230, 1)" offset="100%"></stop>
                        </linearGradient>
                    </defs>
                <path fill="url(#sw-gradient)" d="M20,-18.6C27.7,-17.4,36.7,-12.8,35.6,-7.9C34.5,-3.1,23.2,1.9,18.2,10.4C13.2,18.8,14.3,30.8,10.8,33.8C7.3,36.8,-0.9,30.9,-10.3,27.8C-19.8,24.6,-30.5,24.2,-33.5,19.2C-36.5,14.2,-31.9,4.7,-28.6,-3.5C-25.3,-11.8,-23.5,-18.7,-18.9,-20.5C-14.4,-22.2,-7.2,-18.7,-0.5,-18.1C6.2,-17.5,12.4,-19.8,20,-18.6Z" width="100%" height="100%" transform="translate(50 50)" stroke-width="0" style="transition: all 0.3s ease 0s;" stroke="url(#sw-gradient)"></path>
              </svg>