<!--?xml version="1.0" standalone="no"?-->
              <svg id="sw-js-blob-svg" viewBox="0 0 100 100" xmlns="http://www.w3.org/2000/svg" version="1.1">
                    <defs> 
                        <linearGradient id="sw-gradient" x1="0" x2="1" y1="1" y2="0">
                            <stop id="stop1" stop-color="rgba(223, 231, 253, 1)" offset="0%"></stop>
                            <stop id="stop2" stop-color="rgba(223, 231, 253, 1)" offset="100%"></stop>
                        </linearGradient>
                    </defs>
                <path fill="url(#sw-gradient)" d="M15.9,-19.7C18.2,-16.9,16.2,-9.7,16.3,-3.7C16.3,2.3,18.5,7.1,18.7,14.7C19,22.4,17.4,32.8,12.2,35.6C7.1,38.4,-1.7,33.4,-11.2,30.2C-20.7,26.9,-31,25.4,-36.4,19.4C-41.8,13.4,-42.3,2.9,-40,-6.5C-37.7,-16,-32.6,-24.3,-25.5,-26.3C-18.3,-28.2,-9.2,-23.6,-1.2,-22.2C6.8,-20.8,13.5,-22.5,15.9,-19.7Z" width="100%" height="100%" transform="translate(50 50)" stroke-width="0" style="transition: all 0.3s ease 0s;" stroke="url(#sw-gradient)"></path>
              </svg>