<!--?xml version="1.0" standalone="no"?-->
              <svg id="sw-js-blob-svg" viewBox="0 0 100 100" xmlns="http://www.w3.org/2000/svg" version="1.1">
                    <defs> 
                        <linearGradient id="sw-gradient" x1="0" x2="1" y1="1" y2="0">
                            <stop id="stop1" stop-color="rgba(190, 225, 230, 1)" offset="0%"></stop>
                            <stop id="stop2" stop-color="rgba(190, 225, 230, 1)" offset="100%"></stop>
                        </linearGradient>
                    </defs>
                <path fill="url(#sw-gradient)" d="M17.9,-29.4C22.1,-25.2,23.5,-18.3,27.4,-11.9C31.4,-5.4,38,0.5,39.8,7.5C41.6,14.6,38.7,22.8,33.2,28.2C27.7,33.6,19.5,36.1,11.4,38C3.4,39.9,-4.5,41.1,-11.9,39.4C-19.2,37.7,-26,33,-31.8,27.1C-37.7,21.2,-42.6,14,-42.2,7C-41.7,0,-35.7,-6.8,-31.3,-13.5C-27,-20.2,-24.2,-26.8,-19.3,-30.7C-14.3,-34.5,-7.2,-35.5,-0.1,-35.3C6.9,-35.1,13.8,-33.6,17.9,-29.4Z" width="100%" height="100%" transform="translate(50 50)" stroke-width="0" style="transition: all 0.3s ease 0s;" stroke="url(#sw-gradient)"></path>
              </svg>